<svg width="111" height="111" viewBox="0 0 111 111" fill="none" xmlns="http://www.w3.org/2000/svg">
<g id="vuesax/bold/3dcube">
<g id="3dcube">
<path id="Vector" d="M89.4015 26.2702L60.4028 10.6377C57.3503 8.97267 53.6503 8.97267 50.5978 10.6377L21.599 26.2702C19.4715 27.4264 18.1765 29.6464 18.1765 32.1902C18.1765 34.6877 19.4715 36.9539 21.599 38.1102L50.5978 53.7427C52.124 54.5752 53.8353 54.9914 55.5003 54.9914C57.1653 54.9914 58.8765 54.5752 60.4028 53.7427L89.4015 38.1102C91.529 36.9539 92.824 34.7339 92.824 32.1902C92.824 29.6464 91.529 27.4264 89.4015 26.2702Z" fill="#A3FDF8"/>
<path id="Vector_2" d="M45.8337 59.1537L18.8238 45.6487C16.7425 44.6312 14.3375 44.7238 12.395 45.9263C10.4063 47.175 9.25 49.2562 9.25 51.5687V77.0525C9.25 81.4462 11.7013 85.4237 15.6325 87.4125L42.5963 100.917C43.5213 101.38 44.5388 101.611 45.5563 101.611C46.7588 101.611 47.9613 101.288 49.025 100.64C51.0138 99.4375 52.17 97.31 52.17 94.9975V69.5137C52.2162 65.0737 49.765 61.0962 45.8337 59.1537Z" fill="#A3FDF8"/>
<path id="Vector_3" d="M98.6048 45.9257C96.6161 44.7232 94.2111 44.5844 92.1761 45.6482L65.2123 59.1532C61.2811 61.1419 58.8298 65.0732 58.8298 69.5132V94.9969C58.8298 97.3094 59.9861 99.4369 61.9748 100.639C63.0386 101.287 64.2411 101.611 65.4436 101.611C66.4611 101.611 67.4786 101.379 68.4036 100.917L95.3673 87.4119C99.2986 85.4232 101.75 81.4919 101.75 77.0519V51.5682C101.75 49.2557 100.594 47.1744 98.6048 45.9257Z" fill="#A3FDF8"/>
</g>
</g>
</svg>
