<svg width="129" height="29" viewBox="0 0 129 29" fill="none" xmlns="http://www.w3.org/2000/svg">
<path d="M10.9666 10.7784C10.9098 10.1534 10.657 9.66761 10.2081 9.32102C9.76491 8.96875 9.13139 8.79261 8.30753 8.79261C7.76207 8.79261 7.30753 8.86364 6.94389 9.00568C6.58026 9.14773 6.30753 9.34375 6.12571 9.59375C5.94389 9.83807 5.85014 10.1193 5.84446 10.4375C5.8331 10.6989 5.88423 10.929 5.99787 11.1278C6.11719 11.3267 6.28764 11.5028 6.50923 11.6562C6.73651 11.804 7.00923 11.9347 7.32742 12.0483C7.6456 12.1619 8.00355 12.2614 8.40128 12.3466L9.90128 12.6875C10.7649 12.875 11.5263 13.125 12.1854 13.4375C12.8501 13.75 13.407 14.1222 13.8558 14.554C14.3104 14.9858 14.6541 15.483 14.8871 16.0455C15.12 16.608 15.2393 17.2386 15.245 17.9375C15.2393 19.0398 14.9609 19.9858 14.4098 20.7756C13.8587 21.5653 13.0661 22.1705 12.032 22.5909C11.0036 23.0114 9.76207 23.2216 8.30753 23.2216C6.8473 23.2216 5.57457 23.0028 4.48935 22.5653C3.40412 22.1278 2.56037 21.4631 1.9581 20.571C1.35582 19.679 1.04616 18.5511 1.02912 17.1875H5.06889C5.10298 17.75 5.25355 18.2188 5.5206 18.5938C5.78764 18.9688 6.15412 19.2528 6.62003 19.446C7.09162 19.6392 7.63707 19.7358 8.25639 19.7358C8.82457 19.7358 9.30753 19.6591 9.70526 19.5057C10.1087 19.3523 10.4183 19.1392 10.6342 18.8665C10.8501 18.5937 10.9609 18.2812 10.9666 17.929C10.9609 17.5994 10.8587 17.3182 10.6598 17.0852C10.4609 16.8466 10.1541 16.642 9.73935 16.4716C9.33026 16.2955 8.80753 16.1335 8.17117 15.9858L6.3473 15.5597C4.83594 15.2131 3.6456 14.6534 2.77628 13.8807C1.90696 13.1023 1.47514 12.0511 1.48082 10.7273C1.47514 9.64773 1.76491 8.7017 2.35014 7.8892C2.93537 7.0767 3.74503 6.44318 4.77912 5.98864C5.81321 5.53409 6.99219 5.30682 8.31605 5.30682C9.66832 5.30682 10.8416 5.53693 11.8359 5.99716C12.8359 6.4517 13.6115 7.09091 14.1626 7.91477C14.7138 8.73864 14.995 9.69318 15.0064 10.7784H10.9666ZM24.7649 9.90909V12.9773H16.5064V9.90909H24.7649ZM18.2365 6.77273H22.4041V18.8835C22.4041 19.1392 22.4439 19.3466 22.5234 19.5057C22.6087 19.6591 22.7308 19.7699 22.8899 19.8381C23.049 19.9006 23.2393 19.9318 23.4609 19.9318C23.62 19.9318 23.7876 19.9176 23.9638 19.8892C24.1456 19.8551 24.282 19.8267 24.3729 19.804L25.0036 22.8125C24.8047 22.8693 24.5234 22.9403 24.1598 23.0256C23.8018 23.1108 23.3729 23.1648 22.8729 23.1875C21.8956 23.233 21.0575 23.1193 20.3587 22.8466C19.6655 22.5682 19.1342 22.1364 18.7649 21.5511C18.4013 20.9659 18.2251 20.2301 18.2365 19.3438V6.77273ZM30.5817 23.2216C29.7464 23.2216 29.005 23.0824 28.3572 22.804C27.7152 22.5199 27.2067 22.0937 26.8317 21.5256C26.4624 20.9517 26.2777 20.233 26.2777 19.3693C26.2777 18.642 26.4055 18.0284 26.6612 17.5284C26.9169 17.0284 27.2692 16.6222 27.718 16.3097C28.1669 15.9972 28.6839 15.7614 29.2692 15.6023C29.8544 15.4375 30.4794 15.3267 31.1442 15.2699C31.8885 15.2017 32.4879 15.1307 32.9425 15.0568C33.397 14.9773 33.7266 14.8665 33.9311 14.7244C34.1413 14.5767 34.2464 14.3693 34.2464 14.1023V14.0597C34.2464 13.6222 34.0959 13.2841 33.7947 13.0455C33.4936 12.8068 33.0874 12.6875 32.576 12.6875C32.0249 12.6875 31.5817 12.8068 31.2464 13.0455C30.9112 13.2841 30.6982 13.6136 30.6072 14.0341L26.7635 13.8977C26.8771 13.1023 27.1697 12.392 27.6413 11.767C28.1186 11.1364 28.772 10.642 29.6016 10.2841C30.4368 9.92045 31.4396 9.73864 32.6101 9.73864C33.4453 9.73864 34.2152 9.83807 34.9197 10.0369C35.6243 10.2301 36.2379 10.5142 36.7607 10.8892C37.2834 11.2585 37.6868 11.7131 37.9709 12.2528C38.2607 12.7926 38.4055 13.4091 38.4055 14.1023V23H34.4851V21.1761H34.3828C34.1499 21.6193 33.8516 21.9943 33.4879 22.3011C33.13 22.608 32.7067 22.8381 32.218 22.9915C31.7351 23.1449 31.1896 23.2216 30.5817 23.2216ZM31.8686 20.4943C32.3175 20.4943 32.7209 20.4034 33.0788 20.2216C33.4425 20.0398 33.7322 19.7898 33.9482 19.4716C34.1641 19.1477 34.272 18.7727 34.272 18.3466V17.1023C34.1527 17.1648 34.0078 17.2216 33.8374 17.2727C33.6726 17.3239 33.4908 17.3722 33.2919 17.4176C33.093 17.4631 32.8885 17.5028 32.6783 17.5369C32.468 17.571 32.2663 17.6023 32.0732 17.6307C31.6811 17.6932 31.3459 17.7898 31.0675 17.9205C30.7947 18.0511 30.5845 18.2216 30.4368 18.4318C30.2947 18.6364 30.2237 18.8807 30.2237 19.1648C30.2237 19.5966 30.3771 19.9261 30.6839 20.1534C30.9964 20.3807 31.3913 20.4943 31.8686 20.4943ZM47.0561 28.1818C45.8118 28.1818 44.7464 28.0085 43.8601 27.6619C42.9737 27.3153 42.2777 26.8409 41.772 26.2386C41.2663 25.6364 40.9624 24.9545 40.8601 24.1932L44.8061 23.9716C44.88 24.2386 45.0163 24.4716 45.2152 24.6705C45.4197 24.8693 45.6839 25.0227 46.0078 25.1307C46.3374 25.2386 46.7237 25.2926 47.1669 25.2926C47.8658 25.2926 48.4425 25.1222 48.897 24.7812C49.3572 24.446 49.5874 23.858 49.5874 23.017V20.7159H49.4425C49.2777 21.1193 49.0277 21.4801 48.6925 21.7983C48.3572 22.1165 47.9396 22.3665 47.4396 22.5483C46.9453 22.7301 46.3771 22.821 45.7351 22.821C44.7805 22.821 43.9055 22.5994 43.1101 22.1562C42.3203 21.7074 41.6868 21.0142 41.2095 20.0767C40.7379 19.1335 40.5021 17.9205 40.5021 16.4375C40.5021 14.9091 40.7464 13.6506 41.2351 12.6619C41.7237 11.6676 42.3629 10.9318 43.1527 10.4545C43.9482 9.97727 44.8033 9.73864 45.718 9.73864C46.4055 9.73864 46.9936 9.85795 47.4822 10.0966C47.9766 10.3295 48.3828 10.6307 48.701 11C49.0192 11.3693 49.2607 11.7528 49.4254 12.1506H49.5447V9.90909H53.6953V23.0511C53.6953 24.1591 53.4169 25.0938 52.8601 25.8551C52.3033 26.6165 51.5249 27.1932 50.5249 27.5852C49.5249 27.983 48.3686 28.1818 47.0561 28.1818ZM47.1839 19.7869C47.6896 19.7869 48.1214 19.6534 48.4794 19.3864C48.8374 19.1193 49.1129 18.7358 49.3061 18.2358C49.4993 17.7358 49.5959 17.1364 49.5959 16.4375C49.5959 15.7273 49.4993 15.1165 49.3061 14.6051C49.1186 14.0881 48.843 13.6903 48.4794 13.4119C48.1214 13.1335 47.6896 12.9943 47.1839 12.9943C46.6669 12.9943 46.2294 13.1364 45.8714 13.4205C45.5135 13.7045 45.2408 14.1051 45.0533 14.6222C44.8714 15.1335 44.7805 15.7386 44.7805 16.4375C44.7805 17.1364 44.8743 17.7358 45.0618 18.2358C45.2493 18.7358 45.5192 19.1193 45.8714 19.3864C46.2294 19.6534 46.6669 19.7869 47.1839 19.7869ZM62.4716 23.2472C61.1023 23.2472 59.9205 22.9773 58.9261 22.4375C57.9375 21.892 57.1761 21.1165 56.642 20.1108C56.1136 19.0994 55.8494 17.8977 55.8494 16.5057C55.8494 15.1534 56.1165 13.9716 56.6506 12.9602C57.1847 11.9432 57.9375 11.1534 58.9091 10.5909C59.8807 10.0227 61.0256 9.73864 62.3438 9.73864C63.2756 9.73864 64.1278 9.88352 64.9006 10.1733C65.6733 10.4631 66.3409 10.892 66.9034 11.4602C67.4659 12.0284 67.9034 12.7301 68.2159 13.5653C68.5284 14.3949 68.6847 15.3466 68.6847 16.4205V17.4602H57.3068V15.0398H64.8068C64.8011 14.5966 64.696 14.2017 64.4915 13.8551C64.2869 13.5085 64.0057 13.2386 63.6477 13.0455C63.2955 12.8466 62.8892 12.7472 62.429 12.7472C61.9631 12.7472 61.5455 12.8523 61.1761 13.0625C60.8068 13.267 60.5142 13.5483 60.2983 13.9062C60.0824 14.2585 59.9688 14.6591 59.9574 15.108V17.571C59.9574 18.1051 60.0625 18.5739 60.2727 18.9773C60.483 19.375 60.7812 19.6847 61.1676 19.9062C61.554 20.1278 62.0142 20.2386 62.5483 20.2386C62.9176 20.2386 63.2528 20.1875 63.554 20.0852C63.8551 19.983 64.1136 19.8324 64.3295 19.6335C64.5455 19.4347 64.7074 19.1903 64.8153 18.9006L68.642 19.0114C68.483 19.8693 68.1335 20.6165 67.5938 21.2528C67.0597 21.8835 66.358 22.375 65.4886 22.7273C64.6193 23.0739 63.6136 23.2472 62.4716 23.2472ZM88.8303 27.9091C88.3303 27.9091 87.8587 27.8693 87.4155 27.7898C86.9723 27.7159 86.5916 27.6165 86.2734 27.4915L87.1939 24.4659C87.603 24.6023 87.9723 24.6818 88.3018 24.7045C88.6371 24.7273 88.924 24.6733 89.1626 24.5426C89.407 24.4176 89.5945 24.1932 89.7251 23.8693L89.8871 23.4773L85.2337 9.90909H89.5973L92.0092 19.25H92.1456L94.5916 9.90909H98.9808L94.0462 24.2528C93.8075 24.9688 93.4695 25.5994 93.032 26.1449C92.6001 26.696 92.0405 27.1278 91.353 27.4403C90.6712 27.7528 89.8303 27.9091 88.8303 27.9091ZM104.746 15.5341V23H100.579V9.90909H104.542V12.3125H104.687C104.977 11.5114 105.471 10.8835 106.17 10.429C106.869 9.96875 107.701 9.73864 108.667 9.73864C109.587 9.73864 110.386 9.94602 111.062 10.3608C111.744 10.7699 112.272 11.3437 112.647 12.0824C113.028 12.8153 113.215 13.6733 113.21 14.6562V23H109.042V15.4744C109.048 14.7472 108.863 14.179 108.488 13.7699C108.119 13.3608 107.604 13.1562 106.945 13.1562C106.508 13.1562 106.121 13.2528 105.786 13.446C105.457 13.6335 105.201 13.9034 105.019 14.2557C104.843 14.608 104.752 15.0341 104.746 15.5341ZM121.901 23.2472C120.52 23.2472 119.335 22.9631 118.347 22.3949C117.364 21.8267 116.608 21.0369 116.08 20.0256C115.551 19.0085 115.287 17.8324 115.287 16.4972C115.287 15.1562 115.551 13.9801 116.08 12.9688C116.614 11.9517 117.372 11.1591 118.355 10.5909C119.344 10.0227 120.523 9.73864 121.892 9.73864C123.102 9.73864 124.156 9.95739 125.054 10.3949C125.957 10.8324 126.662 11.4517 127.168 12.2528C127.679 13.0483 127.949 13.983 127.977 15.0568H124.082C124.003 14.3864 123.776 13.8608 123.401 13.4801C123.031 13.0994 122.548 12.9091 121.952 12.9091C121.469 12.9091 121.045 13.0455 120.682 13.3182C120.318 13.5852 120.034 13.983 119.83 14.5114C119.631 15.0341 119.531 15.6818 119.531 16.4545C119.531 17.2273 119.631 17.8807 119.83 18.4148C120.034 18.9432 120.318 19.3437 120.682 19.6165C121.045 19.8835 121.469 20.017 121.952 20.017C122.338 20.017 122.679 19.9347 122.974 19.7699C123.276 19.6051 123.523 19.3636 123.716 19.0455C123.909 18.7216 124.031 18.3295 124.082 17.8693H127.977C127.938 18.9489 127.668 19.892 127.168 20.6989C126.673 21.5057 125.977 22.1335 125.08 22.5824C124.188 23.0256 123.128 23.2472 121.901 23.2472Z" fill="black"/>
<path d="M82.5 19.99L77.49 25.01" stroke="#EB4899" stroke-width="4" stroke-miterlimit="10" stroke-linecap="round" stroke-linejoin="round"/>
<path d="M72 19L82.5 19.99" stroke="#EB4899" stroke-width="4" stroke-miterlimit="10" stroke-linecap="round" stroke-linejoin="round"/>
<path d="M72 14.02L77.01 9" stroke="#EB4899" stroke-width="4" stroke-miterlimit="10" stroke-linecap="round" stroke-linejoin="round"/>
<path d="M83 15L72 14" stroke="#EB4899" stroke-width="4" stroke-miterlimit="10" stroke-linecap="round" stroke-linejoin="round"/>
</svg>
